<?xml version="1.0" encoding="UTF-8"?>
<svg version="1.1" xmlns="http://www.w3.org/2000/svg" width="270" height="270">
<path d="M0 0 C0.70109894 0.00054382 1.40219788 0.00108765 2.12454224 0.00164795 C13.94293001 0.04364111 25.12157167 1.02945182 36.5 4.375 C37.2317041 4.58930664 37.9634082 4.80361328 38.71728516 5.02441406 C72.49713649 15.28608015 102.36239398 38.30088977 119.5 69.375 C124.17586892 78.51621848 127.89177936 87.92957027 130.875 97.75 C131.11355713 98.5330249 131.35211426 99.3160498 131.59790039 100.12280273 C134.92569455 111.64079503 135.91006928 122.91159458 135.875 134.875 C135.87418427 135.92664841 135.87418427 135.92664841 135.87335205 136.99954224 C135.83135889 148.81793001 134.84554818 159.99657167 131.5 171.375 C131.17854004 172.47255615 131.17854004 172.47255615 130.85058594 173.59228516 C120.58891985 207.37213649 97.57411023 237.23739398 66.5 254.375 C57.35878152 259.05086892 47.94542973 262.76677936 38.125 265.75 C37.3419751 265.98855713 36.5589502 266.22711426 35.75219727 266.47290039 C24.23420497 269.80069455 12.96340542 270.78506928 1 270.75 C0.29890106 270.74945618 -0.40219788 270.74891235 -1.12454224 270.74835205 C-12.94293001 270.70635889 -24.12157167 269.72054818 -35.5 266.375 C-36.59755615 266.05354004 -36.59755615 266.05354004 -37.71728516 265.72558594 C-58.91689558 259.28555394 -77.07413113 248.1203888 -93.5 233.375 C-94.30308594 232.65699219 -95.10617188 231.93898437 -95.93359375 231.19921875 C-117.7686306 210.53183093 -133.11888803 178.01998361 -134.67700195 147.96020508 C-134.96108575 131.43014984 -135.20852063 115.38898682 -130.5 99.375 C-130.28569336 98.6432959 -130.07138672 97.9115918 -129.85058594 97.15771484 C-119.58891985 63.37786351 -96.57411023 33.51260602 -65.5 16.375 C-56.35878152 11.69913108 -46.94542973 7.98322064 -37.125 5 C-36.3419751 4.76144287 -35.5589502 4.52288574 -34.75219727 4.27709961 C-23.23420497 0.94930545 -11.96340542 -0.03506928 0 0 Z " fill="#5267FE" transform="translate(134.5,-0.375)"/>
<path d="M0 0 C3.29649232 7.78244064 6.33406279 15.58286804 8.75 23.6875 C8.94811279 24.338396 9.14622559 24.98929199 9.3503418 25.65991211 C12.58092234 36.83377397 13.40898829 47.90535714 13.375 59.5 C13.37445618 60.20109894 13.37391235 60.90219788 13.37335205 61.62454224 C13.33135889 73.44293001 12.34554818 84.62157167 9 96 C8.78569336 96.7317041 8.57138672 97.4634082 8.35058594 98.21728516 C-1.91108015 131.99713649 -24.92588977 161.86239398 -56 179 C-65.14121848 183.67586892 -74.55457027 187.39177936 -84.375 190.375 C-85.54953735 190.73283569 -85.54953735 190.73283569 -86.74780273 191.09790039 C-98.26579503 194.42569455 -109.53659458 195.41006928 -121.5 195.375 C-122.20109894 195.37445618 -122.90219788 195.37391235 -123.62454224 195.37335205 C-135.44293001 195.33135889 -146.62157167 194.34554818 -158 191 C-158.7317041 190.78569336 -159.4634082 190.57138672 -160.21728516 190.35058594 C-181.41689558 183.91055394 -199.57413113 172.7453888 -216 158 C-216.80308594 157.28199219 -217.60617188 156.56398437 -218.43359375 155.82421875 C-224.79460022 149.80337306 -229.82261631 142.8435268 -234.81982422 135.68847656 C-235.82601022 134.24892704 -236.85058862 132.82226191 -237.87890625 131.3984375 C-239.3125 129.3125 -239.3125 129.3125 -241 126 C-239.93054936 122.8322986 -238.34104372 121.20355502 -235.68359375 119.2578125 C-235.01038086 118.75612549 -234.33716797 118.25443848 -233.64355469 117.73754883 C-232.91555664 117.20540771 -232.18755859 116.6732666 -231.4375 116.125 C-225.24359783 111.50072199 -219.18794651 106.7613537 -213.25 101.8125 C-207.34168859 96.8999865 -201.35266859 92.14069802 -195.23828125 87.48828125 C-191.63452219 84.73585623 -188.0978596 81.90193337 -184.5625 79.0625 C-183.30213058 78.0520244 -182.04171395 77.04160768 -180.78125 76.03125 C-180.15734375 75.53109375 -179.5334375 75.0309375 -178.890625 74.515625 C-178.26671875 74.01546875 -177.6428125 73.5153125 -177 73 C-176.37351562 72.49726563 -175.74703125 71.99453125 -175.1015625 71.4765625 C-171.10094567 68.27274902 -167.07172786 65.11306788 -163 62 C-162.22914063 61.40703125 -161.45828125 60.8140625 -160.6640625 60.203125 C-156.70303233 57.41631326 -153.34884426 56.14397426 -148.4609375 56.4609375 C-139.2609115 58.47618129 -130.93351258 64.77588819 -122.94921875 69.61328125 C-118.83522496 72.10189169 -114.71701082 74.57946519 -110.5625 77 C-109.92473633 77.38583252 -109.28697266 77.77166504 -108.62988281 78.16918945 C-103.09640614 81.35720367 -97.99669951 82.77692209 -91.625 81.125 C-86.94828285 78.7656696 -83.28861652 75.0299965 -79.52636719 71.44970703 C-77.84243248 69.85034614 -76.1450929 68.26610107 -74.4453125 66.68359375 C-71.87175154 64.28730185 -69.3017511 61.8872917 -66.734375 59.484375 C-62.50219345 55.52886314 -58.23221848 51.61593738 -53.95703125 47.70703125 C-49.165567 43.32512121 -44.40117589 38.91380545 -39.63232422 34.50732422 C-38.02804639 33.02589866 -36.42245634 31.54591008 -34.81640625 30.06640625 C-33.75254053 29.08600655 -32.68873864 28.10553758 -31.625 27.125 C-31.0976123 26.6388623 -30.57022461 26.15272461 -30.02685547 25.65185547 C-26.38747485 22.29251135 -22.76696563 18.9135625 -19.15258789 15.52734375 C-2.56824741 0 -2.56824741 0 0 0 Z " fill="#00F2BB" transform="translate(257,75)"/>
</svg>
