<svg width="159" height="159" viewBox="0 0 159 159" fill="none" xmlns="http://www.w3.org/2000/svg">
<g clip-path="url(#clip0_6056_26959)">
<path d="M0 79.5C0 123.407 35.5934 159 79.5 159C123.407 159 159 123.407 159 79.5C159 35.5934 123.407 0 79.5 0C35.5934 0 0 35.5934 0 79.5Z" fill="#191C1F"/>
<path d="M39.8773 58.2794C37.5016 58.2794 35.5327 60.2715 35.5327 62.672V94.9472C35.5327 97.2902 37.5031 99.2824 39.8773 99.2824C42.253 99.2824 44.1644 97.2902 44.1644 94.9472V62.6736C44.1644 60.2715 42.2514 58.2794 39.8773 58.2794Z" fill="white"/>
<path d="M120.247 70.8192C119.234 68.369 117.686 66.2123 115.781 64.2869C113.876 62.4795 111.614 60.9625 109.114 59.9128C106.553 58.8632 103.816 58.3384 100.957 58.3384H92.563C92.3255 58.2794 92.0863 58.2794 91.8488 58.2794C89.3489 58.2794 87.3241 60.2622 87.3241 62.7124V94.8493C87.3241 97.2995 89.2293 99.1659 91.6702 99.2824H100.957C103.814 99.2824 106.553 98.6986 109.114 97.6489C111.614 96.5993 113.876 95.1413 115.781 93.3323C117.686 91.3495 119.234 89.2502 120.247 86.741C121.318 84.2333 121.854 81.6076 121.854 78.808C121.854 76.069 121.318 73.3284 120.247 70.8192ZM109.632 87.1757C107.281 89.4722 104.187 90.6507 100.783 90.6507H95.9573V66.9126H100.783C104.187 66.9126 107.28 68.2091 109.632 70.4466C111.985 72.6841 113.221 75.6296 113.221 78.8112C113.221 81.9911 111.983 84.9367 109.632 87.1757Z" fill="white"/>
<path d="M94.2509 47.6757L81.5123 34.9371C80.6272 34.052 79.4564 33.6343 78.2981 33.6731C77.1398 33.6343 75.969 34.0535 75.0839 34.9371L62.3453 47.6757C60.6497 49.3713 60.6497 52.1196 62.3453 53.8152C64.0409 55.5108 66.7892 55.5108 68.4848 53.8152L74.2393 48.0608V82.7054L58.8781 60.5059C58.1126 59.1582 56.7011 58.2793 55.0521 58.2793C52.6392 58.2793 50.6377 60.2715 50.6377 62.672V94.8897C50.6377 97.2918 52.6392 99.2824 55.0521 99.2824C57.5241 99.2824 59.4665 97.2902 59.4665 94.8897V74.9153L75.0638 97.3492C75.0638 97.4082 75.0638 97.4657 75.1228 97.5247C76.0063 98.638 77.2422 99.2824 78.6537 99.2824C81.0666 99.2824 83.0091 97.2902 83.0091 94.8897V48.7114L88.1129 53.8152C89.8085 55.5108 92.5569 55.5108 94.2525 53.8152C95.948 52.1196 95.9465 49.3713 94.2509 47.6757Z" fill="white"/>
<path d="M56.5346 113.638V120.53C56.5346 121.482 55.7627 122.252 54.8124 122.252C53.8603 122.252 53.0901 121.48 53.0901 120.53V114.614C53.0901 112.977 52.7162 110.938 50.5051 110.938C48.3506 110.938 47.4603 112.948 47.4603 114.729V120.53C47.4603 121.482 46.6884 122.252 45.7381 122.252C44.7861 122.252 44.0159 121.48 44.0159 120.53V113.924C44.0159 112.229 43.2114 110.938 41.46 110.938C39.393 110.938 38.4444 112.833 38.4444 114.67V120.528C38.4444 121.48 37.6725 122.25 36.7222 122.25C35.7702 122.25 35 121.479 35 120.528V110.104C35 109.2 35.7325 108.468 36.6365 108.468C37.5404 108.468 38.2729 109.2 38.2729 110.104V110.679H38.3295C38.9333 109.329 40.3965 108.066 42.6076 108.066C44.7329 108.066 46.1395 109.128 46.9149 110.679C47.8343 109.013 49.385 108.066 51.452 108.066C55.0405 108.066 56.5346 110.824 56.5346 113.638Z" fill="white"/>
<path d="M67.2452 108.066C71.4101 108.066 74.7396 110.967 74.7396 115.303C74.7396 119.64 71.4084 122.655 67.2452 122.655C63.0821 122.655 59.7509 119.64 59.7509 115.303C59.7509 110.967 63.0821 108.066 67.2452 108.066ZM67.2452 119.784C69.9727 119.784 71.2369 117.458 71.2369 115.303C71.2369 113.149 69.9727 110.881 67.2452 110.881C64.5178 110.881 63.2536 113.15 63.2536 115.303C63.2536 117.458 64.5178 119.784 67.2452 119.784Z" fill="white"/>
<path d="M79.5394 108.469H79.8773C80.6887 108.469 81.3457 109.126 81.3457 109.937V110.68H81.4023C82.0061 109.301 83.6425 108.068 85.6804 108.068C89.2706 108.068 90.763 110.824 90.763 113.639V120.787C90.763 121.598 90.106 122.255 89.2946 122.255H88.7835C87.9721 122.255 87.3151 121.598 87.3151 120.787V114.615C87.3151 112.979 86.9412 110.939 84.7301 110.939C82.5481 110.939 81.5138 112.835 81.5138 114.672V120.785C81.5138 121.597 80.8568 122.254 80.0454 122.254H79.5343C78.7229 122.254 78.0659 121.597 78.0659 120.785V109.937C78.0711 109.126 78.728 108.469 79.5394 108.469Z" fill="white"/>
<path d="M107.024 116.452H97.4248C97.5689 118.404 99.3494 119.842 101.36 119.842C102.59 119.842 103.528 119.49 104.247 118.892C104.768 118.458 105.533 118.482 106.063 118.905C106.789 119.485 106.811 120.6 106.087 121.18C104.861 122.163 103.302 122.655 101.391 122.655C97.14 122.655 93.9821 119.928 93.9821 115.447C93.9821 110.996 97.1126 108.068 101.276 108.068C105.123 108.068 107.938 110.565 107.938 115.535V115.542C107.936 116.044 107.528 116.452 107.024 116.452ZM104.49 113.982C104.49 112.202 103.485 110.651 101.245 110.651C99.2053 110.651 97.5689 112.058 97.4248 113.982H104.49Z" fill="white"/>
<path d="M111.827 108.469C112.544 108.469 113.187 108.912 113.445 109.581L116.865 118.492H116.923L119.96 109.586C120.188 108.918 120.814 108.469 121.519 108.469C122.678 108.469 123.474 109.634 123.054 110.714L117.411 125.211C116.435 127.708 115.229 129.146 112.184 129.146C112.091 129.146 111.997 129.144 111.903 129.141C111.086 129.113 110.455 128.415 110.534 127.602L110.547 127.451C110.618 126.717 111.235 126.158 111.971 126.16H111.983C113.448 126.16 113.85 125.441 114.424 124.005L115.114 122.254L110.235 110.886C109.745 109.74 110.583 108.469 111.827 108.469Z" fill="white"/>
</g>
<defs>
<clipPath id="clip0_6056_26959">
<rect width="159" height="159" fill="white"/>
</clipPath>
</defs>
</svg>
