<?xml version="1.0" encoding="UTF-8"?>
<svg version="1.1" xmlns="http://www.w3.org/2000/svg" width="225" height="225">
<path d="M0 0 C74.25 0 148.5 0 225 0 C225 74.25 225 148.5 225 225 C150.75 225 76.5 225 0 225 C0 150.75 0 76.5 0 0 Z " fill="#FDFEFE" transform="translate(0,0)"/>
<path d="M0 0 C0 63.69 0 127.38 0 193 C-2.31 191.02 -4.62 189.04 -7 187 C-8.42951969 185.93967523 -9.86660462 184.88936199 -11.31555176 183.85574341 C-18.71382041 178.04672649 -24.00779251 172.47003834 -25.65014648 162.95550537 C-26.47876362 155.09715904 -26.54643862 147.24544186 -26.48112297 139.35015249 C-26.46439513 136.1622621 -26.50017244 132.97574828 -26.53492212 129.78806889 C-26.6158116 122.24944969 -26.60925178 114.71446807 -26.54589844 107.17578125 C-26.48256851 99.4638577 -26.56492525 91.76335803 -26.72045088 84.05299842 C-26.84999606 77.37470359 -26.88780581 70.69994935 -26.85543108 64.02048409 C-26.83699301 60.05614987 -26.84974342 56.0992165 -26.95140076 52.13598251 C-27.28701221 37.74595168 -27.33150607 25.24118319 -17.19398546 14.11087096 C-3.55046469 0 -3.55046469 0 0 0 Z " fill="#1D396A" transform="translate(119,17)"/>
<path d="M0 0 C0 39.93 0 79.86 0 121 C-2.31 119.02 -4.62 117.04 -7 115 C-8.42571075 113.9825022 -9.86190124 112.97928649 -11.31445312 112.00048828 C-19.21077889 106.02747908 -24.32523729 99.98901739 -25.74609375 89.95996094 C-26.67076121 81.97757741 -26.67269954 73.96191575 -26.54589844 65.9375 C-26.49531783 62.56494415 -26.53638438 59.21503496 -26.66894531 55.84472656 C-27.85416141 25.61125394 -27.85416141 25.61125394 -17.21125031 13.81649208 C-3.85670159 0 -3.85670159 0 0 0 Z " fill="#1D3969" transform="translate(83,53)"/>
<path d="M0 0 C2.31 1.98 4.62 3.96 7 6 C8.42612423 7.02267971 9.86237649 8.03160644 11.31445312 9.01708984 C19.148157 14.97070909 24.31493122 20.97347588 25.74609375 30.94628906 C26.66998388 38.81729729 26.6727625 46.72167711 26.54589844 54.63525391 C26.49531778 57.95942805 26.53637111 61.26062616 26.66894531 64.58251953 C27.8538023 94.37096495 27.8538023 94.37096495 17.21125031 106.15006828 C12.26130239 111.26929006 6.84914099 115.93613604 1 120 C0.67 120 0.34 120 0 120 C0 80.4 0 40.8 0 0 Z " fill="#12B2E6" transform="translate(132,53)"/>
<path d="M0 0 C0.99 0.495 0.99 0.495 2 1 C1.67 1.66 1.34 2.32 1 3 C1.66 3 2.32 3 3 3 C3.02335113 16.7688674 3.04092362 30.53773174 3.05181217 44.30661488 C3.05703734 50.69961546 3.06412839 57.09260276 3.07543945 63.4855957 C3.08628128 69.65175698 3.0922796 75.81790547 3.09487724 81.98407555 C3.09672914 84.34006642 3.10034528 86.69605656 3.10573006 89.05204201 C3.11295762 92.34436192 3.11399021 95.63662854 3.11352539 98.92895508 C3.11712067 99.90934753 3.12071594 100.88973999 3.12442017 101.89984131 C3.1230455 102.79586563 3.12167084 103.69188995 3.12025452 104.61506653 C3.12117631 105.3939816 3.1220981 106.17289667 3.12304783 106.97541523 C3 109 3 109 2 112 C2.66 112.33 3.32 112.66 4 113 C2.68 113.99 1.36 114.98 0 116 C0 77.72 0 39.44 0 0 Z " fill="#00AFE2" transform="translate(132,57)"/>
</svg>
