<svg width="64" height="64" viewBox="0 0 64 64" fill="none" xmlns="http://www.w3.org/2000/svg">
<rect width="64" height="64" rx="4" fill="#002852"/>
<path d="M34.3121 42.4667L21.8465 23.1197H25.2363C26.2204 23.1197 27.0157 21.9193 27.0157 20.4487C27.0157 18.9782 26.2204 17.7778 25.2363 17.7778H16.8365C16.3593 17.7978 15.8822 17.9278 15.4547 18.2079C14.2022 19.0282 13.8443 20.7088 14.6595 21.9793L29.7692 45.4278C30.5843 46.6883 32.2544 47.0484 33.5168 46.2281C34.7694 45.4178 35.1272 43.7272 34.3121 42.4667Z" fill="white"/>
<path d="M48.5455 18.2172C48.118 17.9371 47.6409 17.797 47.1736 17.787H38.7738C37.7897 17.787 36.9944 18.9875 36.9944 20.458C36.9944 21.9285 37.7897 23.129 38.7738 23.129H42.1536L34.897 34.4031L38.0382 39.5349L49.3407 21.9885C50.1558 20.7181 49.798 19.0375 48.5455 18.2172Z" fill="#E6E7E8"/>
</svg>
